<svg xmlns="http://www.w3.org/2000/svg" version="1.1" xmlns:xlink="http://www.w3.org/1999/xlink" xmlns:svgjs="http://svgjs.com/svgjs" width="512" height="512" x="0" y="0" viewBox="0 0 512 512" style="enable-background:new 0 0 512 512" xml:space="preserve"><g><path d="m392.887 283.335-.119-.049-80.146-31.471a101.769 101.769 0 0 0-11.868-6.828v-17.916c14.994-11.397 25.429-28.476 28.089-48.001 18.221-.067 33.022-14.907 33.022-33.142 0-9.255-3.817-17.631-9.953-23.65V95.963C351.912 43.049 308.864 0 255.95 0s-95.962 43.049-95.962 95.963v26.317c-6.135 6.019-9.951 14.394-9.951 23.648 0 18.235 14.803 33.075 33.022 33.142 2.66 19.524 13.094 36.603 28.087 48v17.99a101.281 101.281 0 0 0-11.674 6.72l-80.24 31.508c-.04.016-.08.031-.119.049-1.672.688-40.938 17.356-40.938 63.208v157.373a8.082 8.082 0 0 0 8.084 8.084h228.516a8.082 8.082 0 0 0 8.084-8.084 8.082 8.082 0 0 0-8.084-8.084h-98.082v-78.147a8.082 8.082 0 0 0-8.084-8.084 8.083 8.083 0 0 0-8.084 8.084v78.147h-45.029v-81.741a8.082 8.082 0 0 0-8.084-8.084 8.083 8.083 0 0 0-8.084 8.084v81.741H94.343V346.543c0-34.541 29.202-47.522 30.882-48.238l45.905-18.027c-10.414 15.724-16.502 34.323-16.943 53.895l-.002.182v15.409c-7.992 3.216-13.655 11.034-13.655 20.162 0 11.987 9.752 21.739 21.739 21.739 11.985 0 21.737-9.752 21.737-21.739 0-9.128-5.662-16.945-13.653-20.161v-15.316c.653-27.576 14.607-52.863 36.719-68.285l4.195-1.647a8.076 8.076 0 0 0 2.619 4.737l29.799 26.242-40.393 35.255a8.082 8.082 0 0 0-2.768 6.09v57.128c0 4.466 3.619 8.084 8.084 8.084s8.084-3.619 8.084-8.084v-53.454l44.043-38.439c.209-.151.413-.313.61-.486l36.72-32.337a8.13 8.13 0 0 0 .883-.927l.12-.143c.254-.323.483-.665.685-1.022.03-.054.058-.108.087-.163.4-.747.681-1.553.831-2.394.006-.036.021-.068.026-.103l4.245 1.666a85.687 85.687 0 0 1 29.591 36.03h-2.318c-13.785 0-25 11.213-25 24.997v39.469c0 13.784 11.214 24.997 25 24.997a8.082 8.082 0 0 0 8.084-8.084 8.082 8.082 0 0 0-8.084-8.084c-4.869 0-8.831-3.961-8.831-8.829v-39.469c0-4.869 3.962-8.829 8.831-8.829h28.189c4.87 0 8.831 3.961 8.831 8.829v39.469c0 4.869-3.962 8.829-8.831 8.829a8.082 8.082 0 0 0-8.084 8.084 8.082 8.082 0 0 0 8.084 8.084c13.785 0 25-11.213 25-24.997v-39.469c0-13.784-11.214-24.997-25-24.997h-8.481a101.716 101.716 0 0 0-10.94-21.877l45.791 17.981c1.236.529 30.881 13.659 30.881 48.238v149.29h-44.981v-81.741a8.082 8.082 0 0 0-8.084-8.084 8.083 8.083 0 0 0-8.084 8.084v81.741h-17.661a8.083 8.083 0 0 0-8.084 8.084 8.082 8.082 0 0 0 8.084 8.084h86.894a8.082 8.082 0 0 0 8.084-8.084v-157.37c.003-45.85-39.264-62.52-40.936-63.208zM162.27 375.496a5.577 5.577 0 0 1-5.571-5.571 5.575 5.575 0 0 1 5.571-5.568 5.573 5.573 0 0 1 5.568 5.568 5.574 5.574 0 0 1-5.568 5.571zm173.725-244.897a17.088 17.088 0 0 1 2.395 1.394c.102.071.206.14.306.213 4.238 3.089 7.001 8.087 7.001 13.723 0 9.09-7.181 16.535-16.168 16.957v-33.902c.078.003.156.004.235.01.386.024.767.061 1.146.111.124.016.249.026.373.045 1.052.16 2.073.414 3.053.758l.094.036c.451.162.89.342 1.323.539.081.037.162.077.242.116zm-153.622 32.286c-8.987-.421-16.168-7.867-16.168-16.956 0-5.636 2.765-10.637 7.005-13.726.097-.07.196-.136.293-.204a17.76 17.76 0 0 1 1.293-.819c.363-.207.734-.402 1.113-.582.08-.038.158-.078.238-.114.433-.198.875-.379 1.327-.541.03-.011.06-.024.091-.034.98-.345 2.002-.598 3.054-.759.123-.018.248-.029.372-.045.378-.05.761-.087 1.147-.111.078-.004.156-.005.235-.01v33.901zm2.723-58.811a8.085 8.085 0 0 0-2.724 6.051v2.667c-.17.004-.34.017-.51.024a30.391 30.391 0 0 0-1.718.111c-.178.016-.357.031-.534.051-.423.045-.842.1-1.261.161-.097.014-.194.026-.291.041-.637.1-1.272.21-1.901.345V95.963c0-43.999 35.796-79.794 79.793-79.794s79.793 35.796 79.793 79.794v17.56a33.01 33.01 0 0 0-1.909-.345c-.088-.014-.178-.025-.267-.038a34.318 34.318 0 0 0-1.283-.164c-.172-.018-.347-.033-.52-.049a29.125 29.125 0 0 0-1.726-.112c-.17-.006-.341-.021-.511-.024v-2.667a8.085 8.085 0 0 0-2.165-5.506l-25.739-27.667a8.076 8.076 0 0 0-10.507-1.138c-.092.064-.187.12-.276.188-.36.271-36.532 27.016-84.174 27.016-5.103 0-10.228-.308-15.235-.917a8.079 8.079 0 0 0-6.335 1.974zm99.489 155.463-28.608 25.194-28.608-25.194v-9.332c0-.295-.023-.586-.055-.876V236.39c.835.345 1.681.66 2.529.972.092.032.181.07.273.104.944.345 1.897.663 2.854.968.191.061.379.128.571.188.872.269 1.753.513 2.634.75.284.077.564.162.849.234.811.207 1.629.387 2.447.566.361.08.719.168 1.082.242.766.155 1.538.284 2.31.414.42.071.835.153 1.258.218.747.112 1.499.197 2.252.287.451.054.898.121 1.351.166.8.08 1.605.13 2.409.183.407.027.811.069 1.219.089 1.217.06 2.438.093 3.663.093h1.869a73.19 73.19 0 0 0 3.663-.093c.41-.021.813-.063 1.22-.089.804-.054 1.608-.103 2.408-.183.455-.045.903-.112 1.356-.166.75-.089 1.5-.174 2.246-.287.425-.065.844-.148 1.265-.219.77-.129 1.539-.258 2.302-.412.367-.074.728-.164 1.092-.245.815-.178 1.63-.358 2.437-.564.29-.074.575-.161.863-.238a73.097 73.097 0 0 0 2.618-.745c.199-.061.395-.132.594-.195a74.16 74.16 0 0 0 2.831-.959c.101-.037.201-.079.303-.116a70.16 70.16 0 0 0 2.503-.963v23.147zm-8.274-37.287-.066.024a55.92 55.92 0 0 1-5.262 1.638l-.011.002c-.814.21-1.636.397-2.464.57l-.531.109c-.745.149-1.495.284-2.252.403-.112.017-.224.039-.336.056-.847.128-1.702.236-2.561.327-.197.021-.397.036-.594.055-.673.064-1.349.115-2.028.155-.243.014-.485.029-.729.04-.861.039-1.726.066-2.597.066h-1.869c-.871 0-1.735-.027-2.597-.066-.243-.011-.485-.026-.728-.04a59.016 59.016 0 0 1-2.029-.155c-.198-.018-.396-.033-.593-.054a56.712 56.712 0 0 1-2.562-.327c-.111-.017-.222-.038-.333-.055a56.007 56.007 0 0 1-2.257-.404l-.526-.108a56.185 56.185 0 0 1-2.473-.572h-.001a55.752 55.752 0 0 1-5.272-1.642l-.051-.018c-21.598-7.938-37.05-28.715-37.05-53.036v-50.262c2.704.153 5.418.23 8.126.23 41.723 0 74.726-17.838 87.837-26.15l18.856 20.269v55.913c.002 24.318-15.448 45.094-37.047 53.032z" fill="#000000" data-original="#000000"></path></g></svg>