<svg xmlns="http://www.w3.org/2000/svg" width="352" height="94" viewBox="0 0 352 94">
  <g id="Group_16390" data-name="Group 16390" transform="translate(-140)">
    <g id="Group_2" data-name="Group 2" transform="translate(140 13)">
      <path id="Path_1" data-name="Path 1" d="M314.094,240.307a37.506,37.506,0,1,0,58.642,32.208,35.4,35.4,0,1,1-58.642-32.208Z" transform="translate(-297.737 -234.256)" fill="#ff8a00" fill-rule="evenodd"/>
      <path id="Path_2" data-name="Path 2" d="M371,281.721a31.648,31.648,0,1,0-49.484-27.178A29.869,29.869,0,1,1,371,281.721Z" transform="translate(-312.726 -223.931)" fill="#22c7b8" fill-rule="evenodd"/>
      <path id="Path_3" data-name="Path 3" d="M366.627,302.713a11.805,11.805,0,0,0,7.029-3.94,1.377,1.377,0,0,0,.394-1.182,20.03,20.03,0,0,0,4.534-11.761c0-5.585-2.695-6.176-7.1-7.1h-.065a1.617,1.617,0,0,0-1.448-.92,1.642,1.642,0,0,0-1.707,1.643,1.582,1.582,0,0,0,1.707,1.513,1.764,1.764,0,0,0,.989-.331h0c4.335.92,5.518,1.184,5.518,5.191,0,3.152-1.645,7.424-4.075,10.512a1.405,1.405,0,0,0-1.116.524c-1.313,1.316-3.284,2.957-5.714,2.957-2.365,0-4.4-1.642-5.65-2.957a1.792,1.792,0,0,0-1.116-.524c-2.432-3.088-4.074-7.359-4.074-10.512,0-4.008,1.119-4.272,5.453-5.191h0a1.973,1.973,0,0,0,1.052.331,1.618,1.618,0,0,0,1.7-1.513,1.68,1.68,0,0,0-1.7-1.643,1.721,1.721,0,0,0-1.513.92h0c-4.466.92-7.161,1.51-7.161,7.1a20.477,20.477,0,0,0,4.6,11.826,1.489,1.489,0,0,0,.331,1.117,11.693,11.693,0,0,0,6.9,3.94l-.066,7.03c0,4.863-4.206,8.805-9.4,8.805s-9.458-3.942-9.458-8.805v-6.176a6.052,6.052,0,0,0,5.32-5.847,6.39,6.39,0,0,0-12.745,0,6.052,6.052,0,0,0,5.32,5.847v6.176c0,5.979,5.19,10.776,11.562,10.776s11.563-4.8,11.563-10.776v-7.03Z" transform="translate(-323.154 -257.903)" fill="#fff" fill-rule="evenodd"/>
      <path id="Path_4" data-name="Path 4" d="M348.116,328.968a3.981,3.981,0,1,0,0-7.948,3.98,3.98,0,1,0,0,7.948Z" transform="translate(-326.849 -285.143)" fill="#22c7b8" fill-rule="evenodd"/>
    </g>
    <text id="SALAMTEK" transform="translate(224 54)" fill="#fff" font-size="50" font-family="SegoeUI-Bold, Segoe UI" font-weight="700"><tspan x="0" y="0">SALAMTEK</tspan></text>
    <text id="Your_health_is_our_concern" data-name="Your health is our concern" transform="translate(230 80)" fill="#fff" font-size="24" font-family="SegoeUI, Segoe UI"><tspan x="0" y="0">Your</tspan><tspan y="0" font-family="NotoNastaliqUrdu-Regular, Noto Nastaliq Urdu"> </tspan><tspan y="0">health</tspan><tspan y="0" font-family="NotoNastaliqUrdu-Regular, Noto Nastaliq Urdu"> </tspan><tspan y="0">is</tspan><tspan y="0" font-family="NotoNastaliqUrdu-Regular, Noto Nastaliq Urdu"> </tspan><tspan y="0">our</tspan><tspan y="0" font-family="NotoNastaliqUrdu-Regular, Noto Nastaliq Urdu"> </tspan><tspan y="0">concern</tspan></text>
  </g>
</svg>
